<?xml version="1.0" encoding="UTF-8"?>
<svg xmlns="http://www.w3.org/2000/svg" xmlns:xlink="http://www.w3.org/1999/xlink" width="24px" height="24px" viewBox="0 0 24 24" version="1.1">
<g id="surface1">
<path style=" stroke:none;fill-rule:nonzero;fill:rgb(25.882353%,52.156863%,95.686275%);fill-opacity:1;" d="M 12 19.273438 L 0 9.5 L 12 0 Z M 12 19.273438 "/>
<path style=" stroke:none;fill-rule:nonzero;fill:rgb(20.784314%,41.568627%,76.470588%);fill-opacity:1;" d="M 12 19.273438 L 24 9.5 L 12 0 Z M 12 19.273438 "/>
<path style=" stroke:none;fill-rule:nonzero;fill:rgb(62.745098%,76.470588%,100%);fill-opacity:1;" d="M 19 17 C 19 13.132812 15.867188 10 12 10 C 8.136719 10 5 13.136719 5 17 C 5 20.867188 8.136719 24 12 24 C 15.867188 24 19 20.867188 19 17 Z M 19 17 "/>
<path style=" stroke:none;fill-rule:nonzero;fill:rgb(46.27451%,65.490196%,98.039216%);fill-opacity:1;" d="M 5.671875 14 C 6.796875 11.632812 9.207031 10 12 10 C 14.792969 10 17.203125 11.636719 18.328125 14 Z M 5.671875 14 "/>
</g>
</svg>
