<?xml version="1.0" standalone="no"?>
<!DOCTYPE svg PUBLIC "-//W3C//DTD SVG 20010904//EN"
 "http://www.w3.org/TR/2001/REC-SVG-20010904/DTD/svg10.dtd">
<svg version="1.0" xmlns="http://www.w3.org/2000/svg"
 width="700.000000pt" height="700.000000pt" viewBox="0 0 700.000000 700.000000"
 preserveAspectRatio="xMidYMid meet">
<metadata>
Created by potrace 1.14, written by Peter Selinger 2001-2017
</metadata>
<g transform="translate(0.000000,700.000000) scale(0.100000,-0.100000)"
fill="#000000" stroke="none">
<path d="M4995 6545 c-65 -29 -141 -122 -253 -310 -64 -109 -237 -443 -279
-540 -12 -27 -39 -88 -61 -135 -63 -135 -81 -176 -139 -314 -30 -72 -63 -148
-73 -171 -10 -22 -42 -100 -72 -173 l-53 -132 -40 6 c-22 4 -49 8 -59 10 -36
7 -271 16 -401 17 -208 0 -369 -13 -491 -38 -28 -6 -32 -4 -44 27 -51 128
-219 520 -302 703 -283 622 -491 974 -614 1038 -43 22 -81 2 -143 -75 -240
-302 -604 -1169 -836 -1992 -45 -162 -98 -362 -110 -416 -4 -18 -45 -196 -51
-225 -3 -11 -7 -31 -10 -45 -49 -254 -65 -336 -70 -368 -3 -20 -7 -44 -9 -52
-2 -8 -7 -37 -10 -65 -4 -27 -8 -57 -10 -65 -2 -8 -7 -37 -10 -65 -4 -27 -8
-61 -10 -75 -5 -31 -33 -288 -39 -355 -26 -277 -27 -842 -2 -884 2 -3 7 -28
10 -56 13 -96 69 -275 118 -377 97 -202 281 -406 473 -525 123 -76 318 -164
438 -197 29 -8 77 -22 107 -30 68 -20 271 -61 345 -71 11 -2 40 -6 65 -10 25
-4 59 -8 75 -10 17 -2 62 -6 100 -10 39 -3 86 -8 105 -10 46 -4 249 -16 353
-20 105 -5 1075 -5 1187 -1 131 5 391 23 440 31 14 2 50 7 80 10 100 10 335
54 430 79 174 47 287 89 425 157 404 200 651 519 749 969 37 166 45 285 40
575 -2 154 -6 296 -8 315 -2 19 -7 73 -10 119 -4 47 -9 98 -11 115 -2 17 -11
90 -20 161 -9 72 -18 141 -20 155 -7 49 -27 175 -31 200 -2 14 -11 63 -20 110
-8 47 -17 92 -19 100 -2 8 -7 30 -10 48 -4 26 -20 104 -40 192 -4 18 -85 349
-90 370 -42 156 -57 209 -81 290 -252 846 -637 1710 -873 1963 -53 57 -79 68
-116 52z m92 -948 c80 -89 210 -327 338 -622 57 -130 208 -565 200 -573 -2 -2
-18 6 -34 17 -133 95 -506 218 -776 257 -22 3 -51 7 -65 10 -14 2 -70 7 -125
10 -55 3 -101 7 -102 8 -4 4 49 135 101 249 14 32 26 60 26 64 0 3 45 97 99
208 106 214 180 334 236 383 40 36 61 34 102 -11z m-2952 6 c74 -73 206 -313
347 -633 61 -137 111 -260 107 -264 -2 -2 -47 -6 -99 -10 -52 -3 -104 -8 -116
-10 -12 -2 -45 -7 -75 -11 -242 -29 -623 -155 -776 -256 -18 -11 -33 -18 -33
-14 0 29 132 417 171 502 10 23 19 45 19 48 0 29 204 434 268 531 97 147 133
170 187 117z m-177 -2168 c101 -14 302 -32 457 -40 526 -27 1854 -27 2265 0
245 16 286 19 380 31 71 8 203 32 221 39 9 3 16 1 16 -7 1 -7 26 -101 58 -208
31 -107 60 -208 65 -225 4 -16 31 -110 59 -208 42 -144 50 -182 40 -194 -56
-67 -321 -146 -604 -178 -27 -3 -61 -8 -75 -10 -14 -2 -56 -7 -95 -11 -38 -3
-83 -8 -100 -9 -16 -2 -75 -6 -130 -10 -55 -3 -120 -8 -145 -10 -278 -24
-1249 -24 -1665 -1 -118 7 -260 17 -285 21 -14 2 -59 6 -100 10 -41 3 -86 8
-100 10 -14 3 -38 7 -55 9 -317 46 -504 103 -568 174 -17 18 -16 26 38 213 30
107 64 223 74 259 11 36 32 106 46 155 14 50 34 120 45 156 l20 66 51 -13 c28
-7 67 -16 87 -19z"/>
</g>
</svg>
